<svg width="61" height="" viewBox="0 0 61 61" fill="none" xmlns="http://www.w3.org/2000/svg">
<path d="M30.5358 30.4643C35.96 30.4643 40.3572 26.0671 40.3572 20.6429C40.3572 15.2187 35.96 10.8214 30.5358 10.8214C25.1116 10.8214 20.7144 15.2187 20.7144 20.6429C20.7144 26.0671 25.1116 30.4643 30.5358 30.4643Z" stroke="black" stroke-linecap="round" stroke-linejoin="round"/>
<path d="M13.7607 45.7857C15.5138 42.908 17.9777 40.5297 20.9155 38.8797C23.8533 37.2292 27.1662 36.3624 30.5357 36.3624C33.9053 36.3624 37.2182 37.2292 40.156 38.8797C43.0939 40.5297 45.5575 42.908 47.3108 45.7857" stroke="black" stroke-linecap="round" stroke-linejoin="round"/>
<g filter="url(#filter0_d_25_9)">
<path d="M30.5357 52.0714C44.6389 52.0714 56.0714 40.6389 56.0714 26.5357C56.0714 12.4327 44.6389 1 30.5357 1C16.4327 1 5 12.4327 5 26.5357C5 40.6389 16.4327 52.0714 30.5357 52.0714Z" fill="#D9D9D9" fill-opacity="0.5" shape-rendering="crispEdges"/>
<path d="M30.5357 52.0714C44.6389 52.0714 56.0714 40.6389 56.0714 26.5357C56.0714 12.4327 44.6389 1 30.5357 1C16.4327 1 5 12.4327 5 26.5357C5 40.6389 16.4327 52.0714 30.5357 52.0714Z" stroke="black" stroke-linecap="round" stroke-linejoin="round" shape-rendering="crispEdges"/>
</g>
<defs>
<filter id="filter0_d_25_9" x="0.5" y="0.5" width="60.0715" height="60.0714" filterUnits="userSpaceOnUse" color-interpolation-filters="sRGB">
<feFlood flood-opacity="0" result="BackgroundImageFix"/>
<feColorMatrix in="SourceAlpha" type="matrix" values="0 0 0 0 0 0 0 0 0 0 0 0 0 0 0 0 0 0 127 0" result="hardAlpha"/>
<feOffset dy="4"/>
<feGaussianBlur stdDeviation="2"/>
<feComposite in2="hardAlpha" operator="out"/>
<feColorMatrix type="matrix" values="0 0 0 0 0 0 0 0 0 0 0 0 0 0 0 0 0 0 0.25 0"/>
<feBlend mode="normal" in2="BackgroundImageFix" result="effect1_dropShadow_25_9"/>
<feBlend mode="normal" in="SourceGraphic" in2="effect1_dropShadow_25_9" result="shape"/>
</filter>
</defs>
</svg>
